<svg width="206" height="206" fill="none" xmlns="http://www.w3.org/2000/svg"><path d="M51.4296 194.75c-3.4309 10.711-11.4363 9.42-19.5561 5.291-11.665-5.807-27.10401-32.262-28.59073-44.78-1.37235-11.614 2.28727-20.647 10.17833-21.68" fill="#fff"/><path d="M51.4296 194.75c-3.4309 10.711-11.4363 9.42-19.5561 5.291-11.665-5.807-27.10401-32.262-28.59073-44.78-1.37235-11.614 2.28727-20.647 10.17833-21.68" stroke="#000" stroke-width="5.04751" stroke-linecap="round" stroke-linejoin="round"/><path d="M13.0036 39.5061c-12.351176 2.968-5.48939 25.1641 4.9177 46.715 4.0027 8.3881-7.4337 42.5859-.3431 64.2659 4.5745 14.195 21.7289 40.004 33.8514 43.618 19.3382 5.736 39.9035 2.58 57.1814-8.776 6.519-3.871 13.152-9.42 18.184-14.582 16.239-16.776 70.104-37.682 73.535-42.973 9.607-14.84-9.034-24.261-19.213-20.389-4.917 1.807-42.657 10.711-37.739 5.936 12.465-11.614 28.59-24.0028 44.372-34.8427 23.674-15.8728-5.718-44.3922-27.79-29.1647-10.293 7.0976-19.67 11.6143-42.314 28.3904 8.463-14.1952 19.899-35.617 29.506-48.0055 15.782-20.38949-16.698-40.0047-35.453-14.5824-12.9231 17.2923-33.051 51.3608-60.6125 74.2021.2288-19.4861-.8005-58.9745-38.0829-49.8121v0z" fill="#fff" stroke="#000" stroke-width="5.04751" stroke-linecap="round" stroke-linejoin="round"/><path d="M116.159 74.3488c-11.207 16.518-13.609 27.7452-15.325 32.7782 6.748-10.4531 8.12-13.4212 16.011-24.0031 1.487-1.8066 3.317-3.6133 5.718-5.4199l-6.404-3.3552zm25.389 36.5202c-8.234 7.743-16.469 19.357-20.243 28.778l18.642-18.583c1.974-2.028 4.535-3.175 7.204-3.226-2.287-1.936-3.888-4.517-5.603-6.969z" fill="#000"/><path d="M31.4161 150.745c8.8059-7.872 12.3512-12.518 17.4975-18.067m2.1729 42.199c14.0667-4.646 17.1545-7.485 23.5588-10.969l-23.5588 10.969zm-9.0347-10.84c13.9523-9.292 19.8992-15.357 28.8195-22.584l-28.8195 22.584z" stroke="#000" stroke-width="5.04751" stroke-linecap="round" stroke-linejoin="round"/></svg>