<svg width="206" height="206" fill="none" xmlns="http://www.w3.org/2000/svg"><path d="M179.64 136.493c12.25 5.888 18.149-4.639 21.93-17.841 5.143-18.9118-4.537-61.3739-13.914-74.5764-8.924-12.3104-19.814-16.4139-27.981-8.2069" fill="#fff"/><path d="M179.64 136.493c12.25 5.888 18.149-4.639 21.93-17.841 5.143-18.9118-4.537-61.3739-13.914-74.5764-8.924-12.3104-19.814-16.4139-27.981-8.2069" stroke="#000" stroke-width="5.04735" stroke-linecap="round" stroke-linejoin="round"/><path d="M76.9438 4.28973C105.68-2.84675 155.138 20.3468 171.019 56.2076c8.016 18.5549 15.578 62.4444 8.016 79.7504-12.084 27.786-33.03 48.771-58.23 58.34-9.075 3.926-19.662 6.602-28.7366 7.494-36.2989 4.639-65.0356-3.568-64.7331-33.542-30.70281-3.211-31.00531-58.34-8.4697-62.979-29.7954-22.48-10.88971-67.083 22.6868-56.5567 3.1761-6.7796 5.7473-36.7529 35.3914-44.42457v0z" fill="#fff" stroke="#000" stroke-width="5.04735" stroke-linecap="round" stroke-linejoin="round"/><path d="M20.5293 109.553c24.048 4.282 33.1228-.892 39.3238-1.784-15.1245-2.32-18.9057-2.32-34.7864-6.066-2.8737-.536-5.5961-1.606-9.0748-4.2823l.3026 13.5593c-.605 0 2.5711-1.249 4.2348-1.427zm4.5374 62.801c14.217.713 31.7615-.357 42.6512-5.888-7.8647-.357-27.9804-2.498-39.7776-2.498l-3.0249 8.386h.1513z" fill="#000"/><path d="M158.919 72.6215c-14.671 3.033-21.931 2.8546-31.308 3.5683M162.7 117.581c-16.637 12.311-21.779 13.203-30.4 17.485l30.4-17.485zm-1.512-20.517c-20.57 7.85-31.157 9.099-45.223 12.846l45.223-12.846z" stroke="#000" stroke-width="5.04735" stroke-linecap="round" stroke-linejoin="round"/><path d="M38.9813 44.0757c32.064 2.6762 42.6512-10.7047 57.322-21.0526-14.6708 14.2729-18.1494 30.5084-55.2046 30.33l-2.1174-9.2774z" fill="#000"/></svg>