<svg width="206" height="206" fill="none" xmlns="http://www.w3.org/2000/svg"><path d="M16.2527 100.098c-9.72114 2.249-12.40284-8.3531-13.185-20.8833-1.11737-17.6708 11.8442-52.6911 20.5597-62.0084 8.0451-8.67472 16.5371-9.63858 21.2301-.4819" fill="#fff"/><path d="M16.2527 100.098c-9.72114 2.249-12.40284-8.3531-13.185-20.8833-1.11737-17.6708 11.8442-52.6911 20.5597-62.0084 8.0451-8.67472 16.5371-9.63858 21.2301-.4819" stroke="#000" stroke-width="5.04747" stroke-linecap="round" stroke-linejoin="round"/><path d="M108.883 9.01354C89.5525-4.31986 50.4444 4.19424 33.9072 31.9856c-8.3803 14.2972-20.1127 50.7633-17.0958 67.9521 4.7207 27.2673 16.7774 50.7263 33.5212 65.2213 6.1177 5.61 12.683 10.141 19.5541 13.494 23.0179 10.763 43.2423-6.265 51.3993-13.815 16.279 9.545 32.04 20.821 47.153 33.735 23.241 19.598 31.175-33.735 9.274-51.567-10.28-8.514-18.213-17.349-41.343-35.341 14.638 1.927 36.203 3.213 50.171 7.711 22.906 7.229 22.682-44.4987-5.587-52.5308-19.219-5.4619-34.527-5.1406-52.852-10.2812-1.341-6.747 1.117-33.7351-19.219-47.55046v0z" fill="#fff" stroke="#000" stroke-width="5.04747" stroke-linecap="round" stroke-linejoin="round"/><path d="M137.935 107.809c-17.655-3.855-27.376 0-32.069.643 11.174 2.088 14.079 2.249 25.811 5.622 2.012.643 4.247 1.767 6.928 3.856l-.67-10.121zm-15.755 53.334c-9.949-5.667-20.589-8.399-31.2867-8.032C101.62 158.894 110 163.392 120.28 168.372l1.9-7.39v.161z" fill="#000"/><path d="M40.2763 49.1744c10.0563 6.2651 15.308 7.7109 21.9005 10.7631m-31.063 27.952C41.2819 102.347 44.8575 104.436 50.5561 110.38L31.1138 87.8895zm3.9108-17.8314C48.8801 81.785 56.2547 85.6405 65.7524 92.2268L35.0246 70.0581z" stroke="#000" stroke-width="5.04747" stroke-linecap="round" stroke-linejoin="round"/><path d="M130.56 53.1905c-23.465-5.4618-29.052-19.7591-38.2141-32.2893 8.4921 16.0644 8.7151 31.0042 35.4211 39.6789l2.793-7.3896z" fill="#000"/></svg>